<?xml version="1.0" encoding="UTF-8" standalone="no"?>
<!DOCTYPE svg PUBLIC "-//W3C//DTD SVG 1.1//EN"
 "http://www.w3.org/Graphics/SVG/1.1/DTD/svg11.dtd">
<!-- Generated by graphviz version 2.40.1 (20161225.0304)
 -->
<!-- Title: hamlib_rigctl Pages: 1 -->
<svg width="132pt" height="279pt"
 viewBox="0.00 0.00 132.00 279.00" xmlns="http://www.w3.org/2000/svg" xmlns:xlink="http://www.w3.org/1999/xlink">
<g id="graph0" class="graph" transform="scale(1 1) rotate(0) translate(4 275)">
<title>hamlib_rigctl</title>
<polygon fill="#ffffff" stroke="transparent" points="-4,4 -4,-275 128,-275 128,4 -4,4"/>
<g id="clust1" class="cluster">
<title>cluster_computer</title>
<polygon fill="none" stroke="#000000" points="8,-8 8,-83 116,-83 116,-8 8,-8"/>
<text text-anchor="middle" x="62" y="-67.8" font-family="Times,serif" font-size="14.00" fill="#000000">Computer &#160;&#160;&#160;&#160;&#160;&#160;&#160;&#160;&#160;&#160;&#160;&#160;&#160;&#160;</text>
</g>
<!-- Antenna -->
<g id="node1" class="node">
<title>Antenna</title>
<polygon fill="none" stroke="#000000" points="62,-235 89,-262 35,-262 62,-235"/>
</g>
<!-- transmatch -->
<g id="node2" class="node">
<title>transmatch</title>
<polygon fill="#808080" stroke="#ffffff" points="92.5,-199 35.5,-199 31.5,-195 31.5,-163 88.5,-163 92.5,-167 92.5,-199"/>
<polyline fill="none" stroke="#ffffff" points="88.5,-195 31.5,-195 "/>
<polyline fill="none" stroke="#ffffff" points="88.5,-195 88.5,-163 "/>
<polyline fill="none" stroke="#ffffff" points="88.5,-195 92.5,-199 "/>
<text text-anchor="middle" x="62" y="-177.3" font-family="Times,serif" font-size="14.00" fill="#ffffff">MFJ&#45;949E</text>
</g>
<!-- Antenna&#45;&#45;transmatch -->
<g id="edge1" class="edge">
<title>Antenna&#45;&#45;transmatch</title>
<path fill="none" stroke="#000000" d="M62,-234.8314C62,-224 62,-210.2876 62,-199.4133"/>
</g>
<!-- rig -->
<g id="node3" class="node">
<title>rig</title>
<polygon fill="#000000" stroke="#ffffff" points="103,-127 25,-127 21,-123 21,-91 99,-91 103,-95 103,-127"/>
<polyline fill="none" stroke="#ffffff" points="99,-123 21,-123 "/>
<polyline fill="none" stroke="#ffffff" points="99,-123 99,-91 "/>
<polyline fill="none" stroke="#ffffff" points="99,-123 103,-127 "/>
<text text-anchor="middle" x="62" y="-105.3" font-family="Times,serif" font-size="14.00" fill="#ffa500">ICOM IC&#45;7200</text>
</g>
<!-- transmatch&#45;&#45;rig -->
<g id="edge2" class="edge">
<title>transmatch&#45;&#45;rig</title>
<path fill="none" stroke="#000000" d="M62,-162.8314C62,-152 62,-138.2876 62,-127.4133"/>
</g>
<!-- program -->
<g id="node4" class="node">
<title>program</title>
<polygon fill="#c0c0c0" stroke="#000000" points="107.5607,-34 84.7803,-52 39.2197,-52 16.4393,-34 39.2197,-16 84.7803,-16 107.5607,-34"/>
<text text-anchor="middle" x="62" y="-30.3" font-family="Courier,monospace" font-size="14.00" fill="#00ff00">program</text>
</g>
<!-- rig&#45;&#45;program -->
<g id="edge3" class="edge">
<title>rig&#45;&#45;program</title>
<path fill="none" stroke="#000000" d="M62,-90.8446C62,-79.1394 62,-63.9716 62,-52.2482"/>
</g>
</g>
</svg>
