<?xml version="1.0" encoding="UTF-8" standalone="no"?>
<!DOCTYPE svg PUBLIC "-//W3C//DTD SVG 1.1//EN"
 "http://www.w3.org/Graphics/SVG/1.1/DTD/svg11.dtd">
<!-- Generated by graphviz version 2.40.1 (20161225.0304)
 -->
<!-- Title: hamlib_rigctld Pages: 1 -->
<svg width="550pt" height="325pt"
 viewBox="0.00 0.00 550.00 324.93" xmlns="http://www.w3.org/2000/svg" xmlns:xlink="http://www.w3.org/1999/xlink">
<g id="graph0" class="graph" transform="scale(1 1) rotate(0) translate(4 320.933)">
<title>hamlib_rigctld</title>
<polygon fill="#ffffff" stroke="transparent" points="-4,4 -4,-320.933 546,-320.933 546,4 -4,4"/>
<g id="clust1" class="cluster">
<title>cluster_computer</title>
<polygon fill="none" stroke="#000000" points="92,-8 92,-163.8793 420,-163.8793 420,-8 92,-8"/>
<text text-anchor="middle" x="256" y="-148.6793" font-family="Times,serif" font-size="14.00" fill="#000000">Computer</text>
</g>
<g id="clust2" class="cluster">
<title>cluster_remote</title>
<polygon fill="none" stroke="#000000" points="418,-171.8793 418,-272.933 534,-272.933 534,-171.8793 418,-171.8793"/>
<text text-anchor="middle" x="476" y="-257.733" font-family="Times,serif" font-size="14.00" fill="#000000">Other Computer</text>
</g>
<!-- Antenna -->
<g id="node1" class="node">
<title>Antenna</title>
<polygon fill="none" stroke="#000000" points="41,-280.933 68,-307.933 14,-307.933 41,-280.933"/>
</g>
<!-- transmatch -->
<g id="node2" class="node">
<title>transmatch</title>
<polygon fill="#808080" stroke="#ffffff" points="71.5,-228.9061 14.5,-228.9061 10.5,-224.9061 10.5,-192.9061 67.5,-192.9061 71.5,-196.9061 71.5,-228.9061"/>
<polyline fill="none" stroke="#ffffff" points="67.5,-224.9061 10.5,-224.9061 "/>
<polyline fill="none" stroke="#ffffff" points="67.5,-224.9061 67.5,-192.9061 "/>
<polyline fill="none" stroke="#ffffff" points="67.5,-224.9061 71.5,-228.9061 "/>
<text text-anchor="middle" x="41" y="-207.2061" font-family="Times,serif" font-size="14.00" fill="#ffffff">MFJ&#45;949E</text>
</g>
<!-- Antenna&#45;&#45;transmatch -->
<g id="edge4" class="edge">
<title>Antenna&#45;&#45;transmatch</title>
<path fill="none" stroke="#000000" d="M41,-280.6938C41,-265.5862 41,-244.2231 41,-229.122"/>
</g>
<!-- rig -->
<g id="node3" class="node">
<title>rig</title>
<polygon fill="#000000" stroke="#ffffff" points="82,-132.8793 4,-132.8793 0,-128.8793 0,-96.8793 78,-96.8793 82,-100.8793 82,-132.8793"/>
<polyline fill="none" stroke="#ffffff" points="78,-128.8793 0,-128.8793 "/>
<polyline fill="none" stroke="#ffffff" points="78,-128.8793 78,-96.8793 "/>
<polyline fill="none" stroke="#ffffff" points="78,-128.8793 82,-132.8793 "/>
<text text-anchor="middle" x="41" y="-111.1793" font-family="Times,serif" font-size="14.00" fill="#ffa500">ICOM IC&#45;7200</text>
</g>
<!-- transmatch&#45;&#45;rig -->
<g id="edge5" class="edge">
<title>transmatch&#45;&#45;rig</title>
<path fill="none" stroke="#000000" d="M41,-192.8442C41,-175.7848 41,-150.3261 41,-133.1867"/>
</g>
<!-- rigctld -->
<g id="node5" class="node">
<title>rigctld</title>
<polygon fill="#ff0000" stroke="#ffffff" points="301.5607,-34 278.7803,-52 233.2197,-52 210.4393,-34 233.2197,-16 278.7803,-16 301.5607,-34"/>
<text text-anchor="middle" x="256" y="-30.3" font-family="Courier,monospace" font-size="14.00" fill="#ffff00">rigctld</text>
</g>
<!-- rig&#45;&#45;rigctld -->
<g id="edge6" class="edge">
<title>rig&#45;&#45;rigctld</title>
<path fill="none" stroke="#000000" d="M70.3505,-96.854C76.0936,-93.6839 82.1513,-90.5786 88,-88 132.7122,-68.287 186.9243,-52.1761 221.4418,-42.8311"/>
</g>
<!-- network -->
<g id="node4" class="node">
<title>network</title>
<polygon fill="#d0d0d0" stroke="#d0d0d0" points="480.3377,-88.1935 483.2096,-88.34 486.0519,-88.5593 488.8528,-88.8506 491.6011,-89.2133 494.2857,-89.6464 496.896,-90.1486 499.4219,-90.7186 501.8538,-91.3549 504.1827,-92.0556 506.4,-92.8189 508.4983,-93.6426 510.4704,-94.5245 512.3101,-95.4623 514.0119,-96.4532 515.5713,-97.4947 516.9842,-98.5838 518.2478,-99.7176 519.3597,-100.8929 520.3186,-102.1066 521.1238,-103.3552 521.7755,-104.6355 522.2746,-105.9438 522.6227,-107.2767 522.8221,-108.6303 522.8757,-110.0011 522.7872,-111.3853 522.5604,-112.7791 522.2,-114.1786 521.711,-115.58 521.0987,-116.9795 520.3688,-118.3732 519.5272,-119.7574 518.58,-121.1282 517.5336,-122.4819 516.3943,-123.8147 515.1683,-125.123 513.8622,-126.4033 512.4821,-127.652 511.0342,-128.8656 509.5245,-130.041 507.9587,-131.1747 506.3424,-132.2639 504.6808,-133.3053 502.979,-134.2963 501.2415,-135.234 499.4728,-136.1159 497.6768,-136.9397 495.8572,-137.703 494.0174,-138.4037 492.1603,-139.0399 490.2889,-139.6099 488.4054,-140.1121 486.512,-140.5452 484.6108,-140.9079 482.7033,-141.1993 480.7913,-141.4185 478.876,-141.565 476.9589,-141.6383 475.0411,-141.6383 473.124,-141.565 471.2087,-141.4185 469.2967,-141.1993 467.3892,-140.9079 465.488,-140.5452 463.5946,-140.1121 461.7111,-139.6099 459.8397,-139.0399 457.9826,-138.4037 456.1428,-137.703 454.3232,-136.9397 452.5272,-136.1159 450.7585,-135.234 449.021,-134.2963 447.3192,-133.3053 445.6576,-132.2639 444.0413,-131.1747 442.4755,-130.041 440.9658,-128.8656 439.5179,-127.652 438.1378,-126.4033 436.8317,-125.123 435.6057,-123.8147 434.4664,-122.4819 433.42,-121.1282 432.4728,-119.7574 431.6312,-118.3732 430.9013,-116.9795 430.289,-115.58 429.8,-114.1786 429.4396,-112.7791 429.2128,-111.3853 429.1243,-110.0011 429.1779,-108.6303 429.3773,-107.2767 429.7254,-105.9438 430.2245,-104.6355 430.8762,-103.3552 431.6814,-102.1066 432.6403,-100.8929 433.7522,-99.7176 435.0158,-98.5838 436.4287,-97.4947 437.9881,-96.4532 439.6899,-95.4623 441.5296,-94.5245 443.5017,-93.6426 445.6,-92.8189 447.8173,-92.0556 450.1462,-91.3549 452.5781,-90.7186 455.104,-90.1486 457.7143,-89.6464 460.3989,-89.2133 463.1472,-88.8506 465.9481,-88.5593 468.7904,-88.34 471.6623,-88.1935 474.5521,-88.1202 477.4479,-88.1202 480.3377,-88.1935"/>
<text text-anchor="middle" x="476" y="-118.6793" font-family="Times,serif" font-size="14.00" fill="#000000">some kind</text>
<text text-anchor="middle" x="476" y="-103.6793" font-family="Times,serif" font-size="14.00" fill="#000000">of network</text>
</g>
<!-- network&#45;&#45;rigctld -->
<g id="edge7" class="edge">
<title>network&#45;&#45;rigctld</title>
<path fill="none" stroke="#000000" d="M439.9982,-95.2966C434.6991,-92.7001 429.2549,-90.1849 424,-88 378.7384,-69.1808 324.4288,-52.7919 290.0615,-43.1466"/>
</g>
<!-- lp0 -->
<g id="node6" class="node">
<title>lp0</title>
<polygon fill="#c0c0c0" stroke="#000000" points="411.5607,-114.8793 388.7803,-132.8793 343.2197,-132.8793 320.4393,-114.8793 343.2197,-96.8793 388.7803,-96.8793 411.5607,-114.8793"/>
<text text-anchor="middle" x="366" y="-111.1793" font-family="Courier,monospace" font-size="14.00" fill="#00ff00">program</text>
</g>
<!-- lp0&#45;&#45;rigctld -->
<g id="edge1" class="edge">
<title>lp0&#45;&#45;rigctld</title>
<path fill="none" stroke="#000000" d="M342.1316,-97.3297C323.681,-83.7635 298.2607,-65.0729 279.8218,-51.5153"/>
</g>
<!-- lp1 -->
<g id="node7" class="node">
<title>lp1</title>
<polygon fill="#c0c0c0" stroke="#000000" points="301.5607,-114.8793 278.7803,-132.8793 233.2197,-132.8793 210.4393,-114.8793 233.2197,-96.8793 278.7803,-96.8793 301.5607,-114.8793"/>
<text text-anchor="middle" x="256" y="-111.1793" font-family="Courier,monospace" font-size="14.00" fill="#00ff00">program</text>
</g>
<!-- lp1&#45;&#45;rigctld -->
<g id="edge2" class="edge">
<title>lp1&#45;&#45;rigctld</title>
<path fill="none" stroke="#000000" d="M256,-96.5265C256,-83.1969 256,-65.249 256,-52.0015"/>
</g>
<!-- lp2 -->
<g id="node8" class="node">
<title>lp2</title>
<polygon fill="#c0c0c0" stroke="#000000" points="191.5607,-114.8793 168.7803,-132.8793 123.2197,-132.8793 100.4393,-114.8793 123.2197,-96.8793 168.7803,-96.8793 191.5607,-114.8793"/>
<text text-anchor="middle" x="146" y="-111.1793" font-family="Courier,monospace" font-size="14.00" fill="#00ff00">program</text>
</g>
<!-- lp2&#45;&#45;rigctld -->
<g id="edge3" class="edge">
<title>lp2&#45;&#45;rigctld</title>
<path fill="none" stroke="#000000" d="M169.8684,-97.3297C188.319,-83.7635 213.7393,-65.0729 232.1782,-51.5153"/>
</g>
<!-- remote_program -->
<g id="node9" class="node">
<title>remote_program</title>
<polygon fill="#c0c0c0" stroke="#000000" points="525.6133,-210.9061 500.8067,-241.9599 451.1933,-241.9599 426.3867,-210.9061 451.1933,-179.8524 500.8067,-179.8524 525.6133,-210.9061"/>
<text text-anchor="middle" x="476" y="-214.7061" font-family="Courier,monospace" font-size="14.00" fill="#00ff00">remote</text>
<text text-anchor="middle" x="476" y="-199.7061" font-family="Courier,monospace" font-size="14.00" fill="#00ff00">program</text>
</g>
<!-- remote_program&#45;&#45;network -->
<g id="edge8" class="edge">
<title>remote_program&#45;&#45;network</title>
<path fill="none" stroke="#000000" d="M476,-179.729C476,-167.4618 476,-153.5158 476,-141.7079"/>
</g>
</g>
</svg>
