<?xml version="1.0" encoding="UTF-8" standalone="no"?>
<!DOCTYPE svg PUBLIC "-//W3C//DTD SVG 1.1//EN"
 "http://www.w3.org/Graphics/SVG/1.1/DTD/svg11.dtd">
<!-- Generated by graphviz version 2.40.1 (20161225.0304)
 -->
<!-- Title: nomic Pages: 1 -->
<svg width="382pt" height="293pt"
 viewBox="0.00 0.00 382.00 292.69" xmlns="http://www.w3.org/2000/svg" xmlns:xlink="http://www.w3.org/1999/xlink">
<g id="graph0" class="graph" transform="scale(1 1) rotate(0) translate(4 288.6943)">
<title>nomic</title>
<polygon fill="#ffffff" stroke="transparent" points="-4,4 -4,-288.6943 378,-288.6943 378,4 -4,4"/>
<g id="clust1" class="cluster">
<title>cluster_nomic</title>
<polygon fill="none" stroke="#000000" points="91,-201.6943 91,-276.6943 366,-276.6943 366,-201.6943 91,-201.6943"/>
<text text-anchor="middle" x="228.5" y="-261.4943" font-family="Times,serif" font-size="14.00" fill="#000000">RIGblaster nomic</text>
</g>
<g id="clust2" class="cluster">
<title>cluster_txcvr</title>
<polygon fill="none" stroke="#000000" points="8,-91 8,-193.6943 227,-193.6943 227,-91 8,-91"/>
<text text-anchor="middle" x="117.5" y="-178.4943" font-family="Times,serif" font-size="14.00" fill="#000000">Yaesu FTM&#45;3100</text>
</g>
<g id="clust3" class="cluster">
<title>cluster_computer</title>
<polygon fill="none" stroke="#000000" points="175,-8 175,-83 355,-83 355,-8 175,-8"/>
<text text-anchor="middle" x="265" y="-67.8" font-family="Times,serif" font-size="14.00" fill="#000000">Computer</text>
</g>
<!-- Antenna -->
<g id="node1" class="node">
<title>Antenna</title>
<polygon fill="none" stroke="#000000" points="48,-209.6943 75,-236.6943 21,-236.6943 48,-209.6943"/>
</g>
<!-- rig_ant -->
<g id="node7" class="node">
<title>rig_ant</title>
<ellipse fill="#c0c0c0" stroke="#c0c0c0" cx="48" cy="-130.8472" rx="31.6951" ry="31.6951"/>
<text text-anchor="middle" x="48" y="-127.1472" font-family="Times,serif" font-size="14.00" fill="#000000">SO&#45;239</text>
</g>
<!-- Antenna&#45;&#45;rig_ant -->
<g id="edge1" class="edge">
<title>Antenna&#45;&#45;rig_ant</title>
<path fill="none" stroke="#000000" d="M48,-209.4781C48,-196.3277 48,-178.2285 48,-162.7095"/>
</g>
<!-- serial -->
<g id="node2" class="node">
<title>serial</title>
<polygon fill="#0000ff" stroke="#0000ff" points="205.9853,-209.6943 278.0147,-209.6943 303.6672,-245.6943 180.3328,-245.6943 205.9853,-209.6943"/>
<text text-anchor="middle" x="242" y="-223.9943" font-family="Times,serif" font-size="14.00" fill="#ffffff">SERIAL IN</text>
</g>
<!-- usb -->
<g id="node8" class="node">
<title>usb</title>
<polygon fill="none" stroke="#000000" points="293,-52 237,-52 237,-16 293,-16 293,-52"/>
<text text-anchor="middle" x="265" y="-30.3" font-family="Times,serif" font-size="14.00" fill="#000000">USB port</text>
</g>
<!-- serial&#45;&#45;usb -->
<g id="edge4" class="edge">
<title>serial&#45;&#45;usb</title>
<path fill="none" stroke="#000000" d="M244.1638,-209.4721C248.5586,-172.4613 258.4829,-88.8839 262.8587,-52.0328"/>
</g>
<!-- audio_in -->
<g id="node3" class="node">
<title>audio_in</title>
<ellipse fill="#ff0000" stroke="#ff0000" cx="340" cy="-227.6943" rx="18" ry="18"/>
<text text-anchor="middle" x="340" y="-231.4943" font-family="Times,serif" font-size="14.00" fill="#000000">AUDIO</text>
<text text-anchor="middle" x="340" y="-216.4943" font-family="Times,serif" font-size="14.00" fill="#000000">IN</text>
</g>
<!-- line_out -->
<g id="node10" class="node">
<title>line_out</title>
<ellipse fill="#00ff00" stroke="#00ff00" cx="329" cy="-34" rx="18" ry="18"/>
<text text-anchor="middle" x="329" y="-37.8" font-family="Times,serif" font-size="14.00" fill="#000000">line</text>
<text text-anchor="middle" x="329" y="-22.8" font-family="Times,serif" font-size="14.00" fill="#000000">out</text>
</g>
<!-- audio_in&#45;&#45;line_out -->
<g id="edge5" class="edge">
<title>audio_in&#45;&#45;line_out</title>
<path fill="none" stroke="#000000" d="M338.9651,-209.4721C336.8633,-172.4613 332.1169,-88.8839 330.0241,-52.0328"/>
</g>
<!-- mic_out -->
<g id="node4" class="node">
<title>mic_out</title>
<polygon fill="none" stroke="#000000" points="162.5,-245.6943 99.5,-245.6943 99.5,-209.6943 162.5,-209.6943 162.5,-245.6943"/>
<text text-anchor="middle" x="131" y="-223.9943" font-family="Times,serif" font-size="14.00" fill="#000000">MIC. OUT</text>
</g>
<!-- mic -->
<g id="node6" class="node">
<title>mic</title>
<polygon fill="none" stroke="#000000" points="164.5,-148.8472 97.5,-148.8472 97.5,-112.8472 164.5,-112.8472 164.5,-148.8472"/>
<text text-anchor="middle" x="131" y="-127.1472" font-family="Times,serif" font-size="14.00" fill="#000000">microphone</text>
</g>
<!-- mic_out&#45;&#45;mic -->
<g id="edge3" class="edge">
<title>mic_out&#45;&#45;mic</title>
<path fill="none" stroke="#000000" d="M131,-209.4781C131,-192.1634 131,-166.2694 131,-148.9817"/>
</g>
<!-- rig_audio -->
<g id="node5" class="node">
<title>rig_audio</title>
<ellipse fill="#ffff00" stroke="#ffff00" cx="201" cy="-130.8472" rx="18" ry="18"/>
<text text-anchor="middle" x="201" y="-127.1472" font-family="Times,serif" font-size="14.00" fill="#000000">EXT SP</text>
</g>
<!-- line_in -->
<g id="node9" class="node">
<title>line_in</title>
<ellipse fill="#ffc0cb" stroke="#ffc0cb" cx="201" cy="-34" rx="18" ry="18"/>
<text text-anchor="middle" x="201" y="-37.8" font-family="Times,serif" font-size="14.00" fill="#000000">line</text>
<text text-anchor="middle" x="201" y="-22.8" font-family="Times,serif" font-size="14.00" fill="#000000">in</text>
</g>
<!-- rig_audio&#45;&#45;line_in -->
<g id="edge2" class="edge">
<title>rig_audio&#45;&#45;line_in</title>
<path fill="none" stroke="#000000" d="M201,-112.631C201,-95.3162 201,-69.4222 201,-52.1345"/>
</g>
</g>
</svg>
