<?xml version="1.0" encoding="UTF-8" standalone="no"?>
<!DOCTYPE svg PUBLIC "-//W3C//DTD SVG 1.1//EN"
 "http://www.w3.org/Graphics/SVG/1.1/DTD/svg11.dtd">
<!-- Generated by graphviz version 2.40.1 (20161225.0304)
 -->
<!-- Title: nooelec Pages: 1 -->
<svg width="82pt" height="260pt"
 viewBox="0.00 0.00 82.00 260.00" xmlns="http://www.w3.org/2000/svg" xmlns:xlink="http://www.w3.org/1999/xlink">
<g id="graph0" class="graph" transform="scale(1 1) rotate(0) translate(4 256)">
<title>nooelec</title>
<polygon fill="#ffffff" stroke="transparent" points="-4,4 -4,-256 78,-256 78,4 -4,4"/>
<!-- Computer -->
<g id="node1" class="node">
<title>Computer</title>
<polygon fill="#c0c0c0" stroke="#000000" points="66,-36 12,-36 8,-32 8,0 62,0 66,-4 66,-36"/>
<polyline fill="none" stroke="#000000" points="62,-32 8,-32 "/>
<polyline fill="none" stroke="#000000" points="62,-32 62,0 "/>
<polyline fill="none" stroke="#000000" points="62,-32 66,-36 "/>
<text text-anchor="middle" x="37" y="-14.3" font-family="Times,serif" font-size="14.00" fill="#000000">Computer</text>
</g>
<!-- sdrstick -->
<g id="node2" class="node">
<title>sdrstick</title>
<polygon fill="#000000" stroke="#000000" points="62,-102 0,-102 0,-78 62,-78 74,-90 62,-102"/>
<text text-anchor="middle" x="37" y="-86.3" font-family="Times,serif" font-size="14.00" fill="#ffffff">NESDR Mini</text>
</g>
<!-- sdrstick&#45;&#45;Computer -->
<g id="edge3" class="edge">
<title>sdrstick&#45;&#45;Computer</title>
<path fill="none" stroke="#000000" d="M37,-71.8314C37,-61 37,-47.2876 37,-36.4133"/>
</g>
<!-- hamitup -->
<g id="node3" class="node">
<title>hamitup</title>
<polygon fill="#00ffff" stroke="#000000" points="67.5,-180 10.5,-180 6.5,-176 6.5,-144 63.5,-144 67.5,-148 67.5,-180"/>
<polyline fill="none" stroke="#000000" points="63.5,-176 6.5,-176 "/>
<polyline fill="none" stroke="#000000" points="63.5,-176 63.5,-144 "/>
<polyline fill="none" stroke="#000000" points="63.5,-176 67.5,-180 "/>
<text text-anchor="middle" x="37" y="-158.3" font-family="Times,serif" font-size="14.00" fill="#000000">Ham It Up</text>
</g>
<!-- hamitup&#45;&#45;sdrstick -->
<g id="edge2" class="edge">
<title>hamitup&#45;&#45;sdrstick</title>
<path fill="none" stroke="#000000" d="M37,-143.8314C37,-133 37,-119.2876 37,-108.4133"/>
</g>
<!-- Antenna -->
<g id="node4" class="node">
<title>Antenna</title>
<polygon fill="none" stroke="#000000" points="37,-216 64,-243 10,-243 37,-216"/>
</g>
<!-- Antenna&#45;&#45;hamitup -->
<g id="edge1" class="edge">
<title>Antenna&#45;&#45;hamitup</title>
<path fill="none" stroke="#000000" d="M37,-215.8314C37,-205 37,-191.2876 37,-180.4133"/>
</g>
</g>
</svg>
